0
SECTION
2
HEADER
9
$INSUNITS
70
4
9
$ACADVER
1
AC1014
9
$HANDSEED
5
FFFF
0
ENDSEC
0
SECTION
2
TABLES
0
TABLE
2
VPORT
5
8
100
AcDbSymbolTable
0
ENDTAB
0
TABLE
2
LTYPE
5
5
100
AcDbSymbolTable
0
LTYPE
5
14
100
AcDbSymbolTableRecord
100
AcDbLinetypeTableRecord
2
BYBLOCK
70
0
0
LTYPE
5
15
100
AcDbSymbolTableRecord
100
AcDbLinetypeTableRecord
2
BYLAYER
70
0
0
ENDTAB
0
TABLE
2
LAYER
5
2
100
AcDbSymbolTable
70
2
0
LAYER
5
50
100
AcDbSymbolTableRecord
100
AcDbLayerTableRecord
2
0
70
0
6
CONTINUOUS
0
ENDTAB
0
TABLE
2
STYLE
5
3
100
AcDbSymbolTable
70
1
0
STYLE
5
11
100
AcDbSymbolTableRecord
100
AcDbTextStyleTableRecord
2
STANDARD
70
0
0
ENDTAB
0
TABLE
2
VIEW
5
6
100
AcDbSymbolTable
70
0
0
ENDTAB
0
TABLE
2
UCS
5
7
100
AcDbSymbolTable
70
0
0
ENDTAB
0
TABLE
2
APPID
5
9
100
AcDbSymbolTable
70
2
0
APPID
5
12
100
AcDbSymbolTableRecord
100
AcDbRegAppTableRecord
2
ACAD
70
0
0
ENDTAB
0
TABLE
2
DIMSTYLE
5
A
100
AcDbSymbolTable
70
1
0
ENDTAB
0
TABLE
2
BLOCK_RECORD
5
1
100
AcDbSymbolTable
70
1
0
BLOCK_RECORD
5
1F
100
AcDbSymbolTableRecord
100
AcDbBlockTableRecord
2
*MODEL_SPACE
0
BLOCK_RECORD
5
1B
100
AcDbSymbolTableRecord
100
AcDbBlockTableRecord
2
*PAPER_SPACE
0
ENDTAB
0
ENDSEC
0
SECTION
2
BLOCKS
0
BLOCK
5
20
100
AcDbEntity
100
AcDbBlockBegin
2
*MODEL_SPACE
0
ENDBLK
5
21
100
AcDbEntity
100
AcDbBlockEnd
0
BLOCK
5
1C
100
AcDbEntity
100
AcDbBlockBegin
2
*PAPER_SPACE
0
ENDBLK
5
1D
100
AcDbEntity
100
AcDbBlockEnd
0
ENDSEC
0
SECTION
2
ENTITIES
0
CIRCLE
5
100
100
AcDbEntity
8
0
100
AcDbCircle
10
91.249277192539822
20
11.614729097117218
30
0
40
1.1000000000000001
210
0
220
0
230
1
0
CIRCLE
5
101
100
AcDbEntity
8
0
100
AcDbCircle
10
68.749277192539822
20
25.914729097117217
30
0
40
1.1000000000000001
210
0
220
0
230
1
0
CIRCLE
5
102
100
AcDbEntity
8
0
100
AcDbCircle
10
96.712129158119225
20
8.9147290971172222
30
0
40
1.6000000000000003
210
0
220
0
230
1
0
LWPOLYLINE
5
103
100
AcDbEntity
8
0
100
AcDbPolyline
90
10
70
1
43
0.0
10
61.749277192539793
20
4.9147290971171476
42
0.4142135623730881
10
64.749277192539807
20
1.9147290971171405
10
116.71212915811924
20
1.9147290971171227
42
0.4142135623730881
10
119.71212915811925
20
4.9147290971171298
10
119.71212915811925
20
28.914729097117224
42
0.68850025806916304
10
114.47606118061947
20
30.914729097117231
10
98.948197135619068
20
30.914729097117231
42
0.44721359549995549
10
94.476061180619496
20
30.914729097117231
10
64.749277192539807
20
30.914729097117231
42
0.4142135623730881
10
61.749277192539793
20
27.914729097117224
0
CIRCLE
5
104
100
AcDbEntity
8
0
100
AcDbCircle
10
91.249277192539822
20
26.214729097117207
30
0
40
1.1000000000000001
210
0
220
0
230
1
0
CIRCLE
5
105
100
AcDbEntity
8
0
100
AcDbCircle
10
68.749277192539779
20
11.414729097117199
30
0
40
1.1000000000000001
210
0
220
0
230
1
0
CIRCLE
5
106
100
AcDbEntity
8
0
100
AcDbCircle
10
114.11212915811923
20
18.914729097117188
30
0
40
1.1000000000000001
210
0
220
0
230
1
0
CIRCLE
5
107
100
AcDbEntity
8
0
100
AcDbCircle
10
116.71212915811924
20
8.9147290971172222
30
0
40
1.6000000000000003
210
0
220
0
230
1
0
CIRCLE
5
108
100
AcDbEntity
8
0
100
AcDbCircle
10
106.71212915811924
20
18.914729097117224
30
0
40
5.7500000000000009
210
0
220
0
230
1
0
CIRCLE
5
109
100
AcDbEntity
8
0
100
AcDbCircle
10
74.749277192539779
20
18.914729097117199
30
0
40
2
210
0
220
0
230
1
0
CIRCLE
5
110
100
AcDbEntity
8
0
100
AcDbCircle
10
116.71212915811924
20
28.914729097117224
30
0
40
1.6000000000000003
210
0
220
0
230
1
0
CIRCLE
5
111
100
AcDbEntity
8
0
100
AcDbCircle
10
96.712129158119282
20
28.914729097117224
30
0
40
1.6000000000000003
210
0
220
0
230
1
0
LWPOLYLINE
5
112
100
AcDbEntity
8
0
100
AcDbPolyline
90
4
70
1
43
0.0
10
8.7322576610045388
20
13.158154900568118
42
0.99999999999999989
10
6.4553259424154064
20
13.1581549005681
10
6.4553259424154454
20
8.1581549005680998
42
0.99999999999999989
10
8.7322576610045726
20
8.1581549005681175
0
LWPOLYLINE
5
113
100
AcDbEntity
8
0
100
AcDbPolyline
90
4
70
1
43
0.0
10
6.4937918017299454
20
21.700038025311276
42
0.99999999999999989
10
8.6937918016392697
20
21.700038025311279
10
8.6937918016392679
20
26.700038025311279
42
0.99999999999999989
10
6.4937918017299445
20
26.700038025311279
0
LWPOLYLINE
5
114
100
AcDbEntity
8
0
100
AcDbPolyline
90
4
70
1
43
0.0
10
28.98605577207984
20
22.550923531324301
42
0.99999999999999989
10
31.201527831321346
20
22.55092353133022
10
31.201527831307967
20
27.55092353133022
42
0.99999999999999989
10
28.986055772066539
20
27.550923531324301
0
LWPOLYLINE
5
115
100
AcDbEntity
8
0
100
AcDbPolyline
90
4
70
1
43
0.0
10
37.0730869647943
20
23.634748927795577
10
37.0730869647943
20
28.634748927795577
42
0.99999999999999989
10
33.873086964794311
20
28.634748927795613
10
33.873086964794211
20
23.634748927795613
42
0.99999999999999989
0
LWPOLYLINE
5
116
100
AcDbEntity
8
0
100
AcDbPolyline
90
4
70
1
43
0.0
10
31.194469132213598
20
7.9087722369898836
10
31.194469132221059
20
12.908772236989883
42
0.99999999999999989
10
28.993114471142984
20
12.908772236993169
10
28.993114471135524
20
7.9087722369931681
42
0.99999999999999989
0
LWPOLYLINE
5
117
100
AcDbEntity
8
0
100
AcDbPolyline
90
4
70
1
43
0.0
10
33.873086964794425
20
9.6347489277956111
10
33.873086964794368
20
4.6347489277956111
42
0.99999999999999989
10
37.073086964794314
20
4.6347489277955756
10
37.073086964794371
20
9.6347489277955756
42
0.99999999999999989
0
LWPOLYLINE
5
118
100
AcDbEntity
8
0
100
AcDbPolyline
90
4
70
1
43
0.0
10
53.873086964794219
20
23.634748927795602
42
0.99999999999999989
10
57.0730869647943
20
23.634748927795577
10
57.0730869647943
20
28.634748927795577
42
0.99999999999999989
10
53.873086964794282
20
28.634748927795599
0
LWPOLYLINE
5
119
100
AcDbEntity
8
0
100
AcDbPolyline
90
4
70
1
43
0.0
10
9.8115221522586005
20
19.387319419519102
10
9.8115221522586005
20
26.75133259088782
10
15.311522152258608
20
26.75133259088782
10
15.311522152258608
20
19.387319419519102
0
LWPOLYLINE
5
120
100
AcDbEntity
8
0
100
AcDbPolyline
90
4
70
1
43
0.0
10
57.073086964794193
20
4.634748927795612
10
57.073086964794214
20
9.6347489277956111
42
0.99999999999999989
10
53.873086964794211
20
9.63474892779562
10
53.873086964794169
20
4.6347489277956191
42
0.99999999999999989
0
LWPOLYLINE
5
121
100
AcDbEntity
8
0
100
AcDbPolyline
90
10
70
1
43
0.0
10
0.81152215225859692
20
4.7513325908876425
10
0.81152215225859692
20
27.751332590887834
42
-0.4142135623730881
10
3.811522152258604
20
30.751332590887841
10
33.198786428985223
20
30.751332590887852
42
-0.46444196887341604
10
37.783202444488218
20
30.751332590887856
10
52.912122695741395
20
30.751332590887863
42
-0.75384091100247763
10
58.457429624204835
20
29.163436926835587
10
58.457429624204842
20
4.7513325908876247
42
-0.4142135623730907
10
55.457429624204835
20
1.7513325908876265
10
3.811522152258604
20
1.7513325908876443
42
-0.4142135623730907
0
ENDSEC
0
SECTION
2
OBJECTS
0
DICTIONARY
5
C
100
AcDbDictionary
3
ACAD_GROUP
350
D
3
ACAD_MLINESTYLE
350
17
0
DICTIONARY
5
D
100
AcDbDictionary
0
DICTIONARY
5
1A
330
C
100
AcDbDictionary
0
DICTIONARY
5
17
100
AcDbDictionary
0
ENDSEC
0
EOF
