0
SECTION
2
HEADER
9
$INSUNITS
70
4
9
$ACADVER
1
AC1014
9
$HANDSEED
5
FFFF
0
ENDSEC
0
SECTION
2
TABLES
0
TABLE
2
VPORT
5
8
100
AcDbSymbolTable
0
ENDTAB
0
TABLE
2
LTYPE
5
5
100
AcDbSymbolTable
0
LTYPE
5
14
100
AcDbSymbolTableRecord
100
AcDbLinetypeTableRecord
2
BYBLOCK
70
0
0
LTYPE
5
15
100
AcDbSymbolTableRecord
100
AcDbLinetypeTableRecord
2
BYLAYER
70
0
0
ENDTAB
0
TABLE
2
LAYER
5
2
100
AcDbSymbolTable
70
2
0
LAYER
5
50
100
AcDbSymbolTableRecord
100
AcDbLayerTableRecord
2
0
70
0
6
CONTINUOUS
0
ENDTAB
0
TABLE
2
STYLE
5
3
100
AcDbSymbolTable
70
1
0
STYLE
5
11
100
AcDbSymbolTableRecord
100
AcDbTextStyleTableRecord
2
STANDARD
70
0
0
ENDTAB
0
TABLE
2
VIEW
5
6
100
AcDbSymbolTable
70
0
0
ENDTAB
0
TABLE
2
UCS
5
7
100
AcDbSymbolTable
70
0
0
ENDTAB
0
TABLE
2
APPID
5
9
100
AcDbSymbolTable
70
2
0
APPID
5
12
100
AcDbSymbolTableRecord
100
AcDbRegAppTableRecord
2
ACAD
70
0
0
ENDTAB
0
TABLE
2
DIMSTYLE
5
A
100
AcDbSymbolTable
70
1
0
ENDTAB
0
TABLE
2
BLOCK_RECORD
5
1
100
AcDbSymbolTable
70
1
0
BLOCK_RECORD
5
1F
100
AcDbSymbolTableRecord
100
AcDbBlockTableRecord
2
*MODEL_SPACE
0
BLOCK_RECORD
5
1B
100
AcDbSymbolTableRecord
100
AcDbBlockTableRecord
2
*PAPER_SPACE
0
ENDTAB
0
ENDSEC
0
SECTION
2
BLOCKS
0
BLOCK
5
20
100
AcDbEntity
100
AcDbBlockBegin
2
*MODEL_SPACE
0
ENDBLK
5
21
100
AcDbEntity
100
AcDbBlockEnd
0
BLOCK
5
1C
100
AcDbEntity
100
AcDbBlockBegin
2
*PAPER_SPACE
0
ENDBLK
5
1D
100
AcDbEntity
100
AcDbBlockEnd
0
ENDSEC
0
SECTION
2
ENTITIES
0
LWPOLYLINE
5
100
100
AcDbEntity
8
0
100
AcDbPolyline
90
8
70
1
43
0.0
10
-2.9847248455501929
20
26.911967754305088
10
-2.9847248455501907
20
0.91196775430526733
10
-28.98472484555014
20
0.91196775430526733
10
-28.984724845550133
20
26.911967754305088
10
-18.416918507418032
20
26.91196775430512
10
-18.416918507418032
20
42.911967754305138
10
-2.9792514842247386
20
42.911967754305138
10
-2.9792514842247364
20
26.911967754305131
0
LWPOLYLINE
5
101
100
AcDbEntity
8
0
100
AcDbPolyline
90
8
70
1
43
0.0
10
-16.722873291830314
20
30.54452726596077
10
-16.722873291830314
20
38.544527265960774
42
-0.41421356237309509
10
-16.222873291830314
20
39.044527265960774
10
-15.722873291830307
20
39.044527265960774
42
-0.41421356237309509
10
-15.222873291830311
20
38.544527265960774
10
-15.222873291830311
20
30.54452726596077
42
-0.41421356237309509
10
-15.722873291830307
20
30.044527265960774
10
-16.222873291830314
20
30.044527265960774
42
-0.41421356237309509
0
LWPOLYLINE
5
102
100
AcDbEntity
8
0
100
AcDbPolyline
90
8
70
1
43
0.0
10
-5.2228732918302967
20
30.044527265960767
10
-5.7228732918302949
20
30.044527265960767
42
-0.41421356237309509
10
-6.2228732918302931
20
30.544527265960767
10
-6.2228732918302931
20
38.544527265960774
42
-0.41421356237309509
10
-5.7228732918302949
20
39.044527265960774
10
-5.2228732918302967
20
39.044527265960774
42
-0.41421356237309509
10
-4.7228732918302985
20
38.544527265960774
10
-4.722873291830294
20
30.544527265960767
42
-0.41421356237309243
0
LWPOLYLINE
5
103
100
AcDbEntity
8
0
100
AcDbPolyline
90
8
70
1
43
0.0
10
-13.222873291830307
20
30.54452726596077
10
-13.222873291830307
20
38.544527265960774
42
-0.41421356237309509
10
-12.722873291830311
20
39.044527265960774
10
-12.222873291830304
20
39.044527265960774
42
-0.41421356237309509
10
-11.722873291830304
20
38.544527265960774
10
-11.722873291830304
20
30.54452726596077
42
-0.41421356237309509
10
-12.222873291830304
20
30.044527265960774
10
-12.722873291830311
20
30.044527265960774
42
-0.41421356237309509
0
LWPOLYLINE
5
104
100
AcDbEntity
8
0
100
AcDbPolyline
90
8
70
1
43
0.0
10
-9.7228732918303074
20
30.54452726596077
10
-9.7228732918303074
20
38.544527265960774
42
-0.41421356237309509
10
-9.2228732918303091
20
39.044527265960774
10
-8.7228732918302931
20
39.044527265960774
42
-0.41421356237309509
10
-8.2228732918302949
20
38.544527265960774
10
-8.2228732918302949
20
30.54452726596077
42
-0.41421356237309509
10
-8.7228732918302931
20
30.044527265960774
10
-9.2228732918303091
20
30.044527265960774
42
-0.41421356237309509
0
LWPOLYLINE
5
105
100
AcDbEntity
8
0
100
AcDbPolyline
90
8
70
1
43
0.0
10
-4.2487702023804497
20
24.316457462595714
42
0.41421356237309509
10
-4.7487702023804479
20
24.816457462595714
10
-5.2487702023804639
20
24.816457462595714
42
0.41421356237309509
10
-5.7487702023804621
20
24.316457462595714
10
-5.7487702023804621
20
16.316457462595714
42
0.41421356237309509
10
-5.2487702023804639
20
15.816457462595714
10
-4.7487702023804479
20
15.816457462595714
42
0.41421356237309509
10
-4.2487702023804497
20
16.316457462595714
0
LWPOLYLINE
5
106
100
AcDbEntity
8
0
100
AcDbPolyline
90
8
70
1
43
0.0
10
-15.748770202380467
20
24.816457462595714
10
-15.248770202380463
20
24.816457462595714
42
-0.41421356237309243
10
-14.74877020238047
20
24.316457462595714
10
-14.748770202380467
20
16.316457462595714
42
-0.41421356237309509
10
-15.248770202380468
20
15.816457462595711
10
-15.748770202380467
20
15.816457462595711
42
-0.41421356237309509
10
-16.248770202380463
20
16.316457462595707
10
-16.248770202380463
20
24.316457462595714
42
-0.41421356237309509
0
LWPOLYLINE
5
107
100
AcDbEntity
8
0
100
AcDbPolyline
90
8
70
1
43
0.0
10
-11.748770202380463
20
15.816457462595714
42
0.41421356237309509
10
-11.248770202380465
20
16.316457462595714
10
-11.248770202380465
20
24.316457462595714
42
0.41421356237309509
10
-11.748770202380463
20
24.816457462595714
10
-12.24877020238047
20
24.816457462595714
42
0.41421356237309509
10
-12.748770202380468
20
24.316457462595714
10
-12.748770202380468
20
16.316457462595714
42
0.41421356237309509
10
-12.24877020238047
20
15.816457462595714
0
LWPOLYLINE
5
108
100
AcDbEntity
8
0
100
AcDbPolyline
90
8
70
1
43
0.0
10
-22.24877020238047
20
15.816457462595714
10
-22.748770202380481
20
15.816457462595714
42
-0.41421356237309509
10
-23.24877020238047
20
16.316457462595704
10
-23.24877020238047
20
24.316457462595721
42
-0.41421356237309509
10
-22.748770202380474
20
24.816457462595718
10
-22.248770202380474
20
24.816457462595718
42
-0.41421356237309509
10
-21.748770202380467
20
24.316457462595711
10
-21.74877020238047
20
16.316457462595714
42
-0.41421356237309509
0
LWPOLYLINE
5
109
100
AcDbEntity
8
0
100
AcDbPolyline
90
8
70
1
43
0.0
10
-19.748770202380477
20
16.316457462595714
42
0.41421356237309509
10
-19.248770202380481
20
15.816457462595714
10
-18.748770202380463
20
15.816457462595714
42
0.41421356237309509
10
-18.248770202380463
20
16.316457462595714
10
-18.248770202380463
20
24.316457462595714
42
0.41421356237309509
10
-18.748770202380463
20
24.816457462595714
10
-19.248770202380481
20
24.816457462595714
42
0.41421356237309509
10
-19.748770202380477
20
24.316457462595714
0
LWPOLYLINE
5
110
100
AcDbEntity
8
0
100
AcDbPolyline
90
8
70
1
43
0.0
10
-25.748770202380481
20
15.816457462595714
10
-26.248770202380488
20
15.816457462595714
42
-0.41421356237309509
10
-26.748770202380484
20
16.316457462595714
10
-26.748770202380481
20
24.316457462595714
42
-0.41421356237309509
10
-26.248770202380484
20
24.816457462595714
10
-25.748770202380477
20
24.816457462595714
42
-0.41421356237309243
10
-25.248770202380481
20
24.316457462595714
10
-25.248770202380477
20
16.316457462595714
42
-0.4142135623730977
0
LWPOLYLINE
5
111
100
AcDbEntity
8
0
100
AcDbPolyline
90
8
70
1
43
0.0
10
-9.2487702023804594
20
16.316457462595704
10
-9.2487702023804594
20
24.316457462595721
42
-0.41421356237309509
10
-8.7487702023804594
20
24.816457462595718
10
-8.248770202380463
20
24.816457462595718
42
-0.41421356237309509
10
-7.748770202380455
20
24.316457462595711
10
-7.748770202380455
20
16.316457462595714
42
-0.41421356237309509
10
-8.2487702023804523
20
15.816457462595714
10
-8.7487702023804594
20
15.816457462595714
42
-0.4142135623731002
0
LWPOLYLINE
5
112
100
AcDbEntity
8
0
100
AcDbPolyline
90
8
70
1
43
0.0
10
-21.924407670609867
20
12.548932516647234
10
-21.92440767060987
20
4.5489325166472385
42
-0.41421356237309509
10
-22.42440767060987
20
4.0489325166472403
10
-22.924407670609881
20
4.0489325166472403
42
-0.41421356237309509
10
-23.42440767060987
20
4.5489325166472296
10
-23.42440767060987
20
12.548932516647241
42
-0.41421356237309509
10
-22.924407670609874
20
13.048932516647241
10
-22.424407670609874
20
13.048932516647241
42
-0.41421356237309509
0
LWPOLYLINE
5
113
100
AcDbEntity
8
0
100
AcDbPolyline
90
8
70
1
43
0.0
10
-26.924407670609884
20
4.5489325166472376
42
0.41421356237309509
10
-26.424407670609888
20
4.0489325166472394
10
-25.924407670609881
20
4.0489325166472394
42
0.4142135623730977
10
-25.424407670609877
20
4.5489325166472376
10
-25.424407670609881
20
12.548932516647239
42
0.41421356237309243
10
-25.924407670609874
20
13.048932516647238
10
-26.424407670609881
20
13.048932516647238
42
0.41421356237309509
10
-26.924407670609881
20
12.548932516647239
0
LWPOLYLINE
5
114
100
AcDbEntity
8
0
100
AcDbPolyline
90
8
70
1
43
0.0
10
-18.924407670609863
20
4.0489325166472394
10
-19.424407670609881
20
4.0489325166472394
42
-0.41421356237309509
10
-19.924407670609877
20
4.5489325166472376
10
-19.924407670609877
20
12.548932516647239
42
-0.41421356237309509
10
-19.424407670609881
20
13.048932516647238
10
-18.924407670609863
20
13.048932516647243
42
-0.41421356237309509
10
-18.42440767060986
20
12.548932516647239
10
-18.424407670609867
20
4.5489325166472376
42
-0.41421356237309509
0
LWPOLYLINE
5
115
100
AcDbEntity
8
0
100
AcDbPolyline
90
8
70
1
43
0.0
10
-5.4244076706098632
20
13.048932516647238
42
0.41421356237309509
10
-5.9244076706098614
20
12.548932516647239
10
-5.9244076706098614
20
4.5489325166472376
42
0.41421356237309509
10
-5.4244076706098632
20
4.0489325166472394
10
-4.9244076706098472
20
4.0489325166472394
42
0.41421356237309509
10
-4.424407670609849
20
4.5489325166472376
10
-4.424407670609849
20
12.548932516647239
42
0.41421356237309509
10
-4.9244076706098472
20
13.048932516647238
0
LWPOLYLINE
5
116
100
AcDbEntity
8
0
100
AcDbPolyline
90
8
70
1
43
0.0
10
-18.924407670609863
20
4.0489325166472394
10
-19.424407670609881
20
4.0489325166472394
42
-0.41421356237309509
10
-19.924407670609877
20
4.5489325166472376
10
-19.924407670609877
20
12.548932516647239
42
-0.41421356237309509
10
-19.424407670609881
20
13.048932516647238
10
-18.924407670609863
20
13.048932516647243
42
-0.41421356237309509
10
-18.42440767060986
20
12.548932516647239
10
-18.424407670609867
20
4.5489325166472376
42
-0.41421356237309509
0
LWPOLYLINE
5
117
100
AcDbEntity
8
0
100
AcDbPolyline
90
8
70
1
43
0.0
10
-14.92440767060987
20
12.548932516647239
10
-14.924407670609865
20
4.5489325166472376
42
-0.41421356237309509
10
-15.424407670609867
20
4.0489325166472341
10
-15.924407670609867
20
4.0489325166472341
42
-0.41421356237309509
10
-16.424407670609863
20
4.5489325166472323
10
-16.424407670609863
20
12.548932516647239
42
-0.41421356237309509
10
-15.924407670609867
20
13.048932516647238
10
-15.424407670609863
20
13.048932516647238
42
-0.41421356237309243
0
LWPOLYLINE
5
118
100
AcDbEntity
8
0
100
AcDbPolyline
90
8
70
1
43
0.0
10
-8.4244076706098525
20
4.0489325166472403
10
-8.9244076706098596
20
4.0489325166472403
42
-0.4142135623731002
10
-9.4244076706098578
20
4.5489325166472296
10
-9.4244076706098578
20
12.548932516647241
42
-0.41421356237309509
10
-8.9244076706098596
20
13.048932516647241
10
-8.4244076706098614
20
13.048932516647241
42
-0.41421356237309509
10
-7.9244076706098543
20
12.548932516647234
10
-7.9244076706098543
20
4.5489325166472385
42
-0.41421356237309509
0
LWPOLYLINE
5
119
100
AcDbEntity
8
0
100
AcDbPolyline
90
8
70
1
43
0.0
10
-16.424407670609863
20
4.5489325166472323
42
0.41421356237309509
10
-15.924407670609867
20
4.0489325166472341
10
-15.424407670609867
20
4.0489325166472341
42
0.41421356237309509
10
-14.924407670609865
20
4.5489325166472376
10
-14.92440767060987
20
12.548932516647239
42
0.41421356237309243
10
-15.424407670609863
20
13.048932516647238
10
-15.924407670609867
20
13.048932516647238
42
0.41421356237309509
10
-16.424407670609863
20
12.548932516647239
0
LWPOLYLINE
5
120
100
AcDbEntity
8
0
100
AcDbPolyline
90
8
70
1
43
0.0
10
-22.42440767060987
20
4.0489325166472403
42
0.41421356237309509
10
-21.92440767060987
20
4.5489325166472385
10
-21.924407670609867
20
12.548932516647234
42
0.41421356237309509
10
-22.424407670609874
20
13.048932516647241
10
-22.924407670609874
20
13.048932516647241
42
0.41421356237309509
10
-23.42440767060987
20
12.548932516647241
10
-23.42440767060987
20
4.5489325166472296
42
0.41421356237309509
10
-22.924407670609881
20
4.0489325166472403
0
LWPOLYLINE
5
121
100
AcDbEntity
8
0
100
AcDbPolyline
90
8
70
1
43
0.0
10
-4.424407670609849
20
12.548932516647239
10
-4.424407670609849
20
4.5489325166472376
42
-0.41421356237309509
10
-4.9244076706098472
20
4.0489325166472394
10
-5.4244076706098632
20
4.0489325166472394
42
-0.41421356237309509
10
-5.9244076706098614
20
4.5489325166472376
10
-5.9244076706098614
20
12.548932516647239
42
-0.41421356237309509
10
-5.4244076706098632
20
13.048932516647238
10
-4.9244076706098472
20
13.048932516647238
42
-0.41421356237309509
0
LWPOLYLINE
5
122
100
AcDbEntity
8
0
100
AcDbPolyline
90
8
70
1
43
0.0
10
-12.924407670609867
20
4.5489325166472376
42
0.41421356237309509
10
-12.42440767060987
20
4.0489325166472394
10
-11.924407670609863
20
4.0489325166472394
42
0.41421356237309509
10
-11.424407670609863
20
4.5489325166472376
10
-11.424407670609863
20
12.548932516647239
42
0.41421356237309509
10
-11.924407670609863
20
13.048932516647238
10
-12.42440767060987
20
13.048932516647238
42
0.41421356237309509
10
-12.924407670609867
20
12.548932516647239
0
LWPOLYLINE
5
123
100
AcDbEntity
8
0
100
AcDbPolyline
90
8
70
1
43
0.0
10
-8.9244076706098596
20
13.048932516647241
10
-8.4244076706098614
20
13.048932516647241
42
-0.41421356237309509
10
-7.9244076706098543
20
12.548932516647234
10
-7.9244076706098543
20
4.5489325166472385
42
-0.41421356237309509
10
-8.4244076706098525
20
4.0489325166472403
10
-8.9244076706098596
20
4.0489325166472403
42
-0.4142135623731002
10
-9.4244076706098578
20
4.5489325166472296
10
-9.4244076706098578
20
12.548932516647241
42
-0.41421356237309509
0
LWPOLYLINE
5
124
100
AcDbEntity
8
0
100
AcDbPolyline
90
8
70
1
43
0.0
10
-25.924407670609881
20
4.0489325166472394
42
0.4142135623730977
10
-25.424407670609877
20
4.5489325166472376
10
-25.424407670609881
20
12.548932516647239
42
0.41421356237309243
10
-25.924407670609874
20
13.048932516647238
10
-26.424407670609881
20
13.048932516647238
42
0.41421356237309509
10
-26.924407670609881
20
12.548932516647239
10
-26.924407670609884
20
4.5489325166472376
42
0.41421356237309509
10
-26.424407670609888
20
4.0489325166472394
0
LWPOLYLINE
5
125
100
AcDbEntity
8
0
100
AcDbPolyline
90
8
70
1
43
0.0
10
-11.924407670609863
20
4.0489325166472394
42
0.41421356237309509
10
-11.424407670609863
20
4.5489325166472376
10
-11.424407670609863
20
12.548932516647239
42
0.41421356237309509
10
-11.924407670609863
20
13.048932516647238
10
-12.42440767060987
20
13.048932516647238
42
0.41421356237309509
10
-12.924407670609867
20
12.548932516647239
10
-12.924407670609867
20
4.5489325166472376
42
0.41421356237309509
10
-12.42440767060987
20
4.0489325166472394
0
ENDSEC
0
SECTION
2
OBJECTS
0
DICTIONARY
5
C
100
AcDbDictionary
3
ACAD_GROUP
350
D
3
ACAD_MLINESTYLE
350
17
0
DICTIONARY
5
D
100
AcDbDictionary
0
DICTIONARY
5
1A
330
C
100
AcDbDictionary
0
DICTIONARY
5
17
100
AcDbDictionary
0
ENDSEC
0
EOF
