0
SECTION
2
HEADER
9
$INSUNITS
70
4
9
$ACADVER
1
AC1014
9
$HANDSEED
5
FFFF
0
ENDSEC
0
SECTION
2
TABLES
0
TABLE
2
VPORT
5
8
100
AcDbSymbolTable
0
ENDTAB
0
TABLE
2
LTYPE
5
5
100
AcDbSymbolTable
0
LTYPE
5
14
100
AcDbSymbolTableRecord
100
AcDbLinetypeTableRecord
2
BYBLOCK
70
0
0
LTYPE
5
15
100
AcDbSymbolTableRecord
100
AcDbLinetypeTableRecord
2
BYLAYER
70
0
0
ENDTAB
0
TABLE
2
LAYER
5
2
100
AcDbSymbolTable
70
2
0
LAYER
5
50
100
AcDbSymbolTableRecord
100
AcDbLayerTableRecord
2
0
70
0
6
CONTINUOUS
0
ENDTAB
0
TABLE
2
STYLE
5
3
100
AcDbSymbolTable
70
1
0
STYLE
5
11
100
AcDbSymbolTableRecord
100
AcDbTextStyleTableRecord
2
STANDARD
70
0
0
ENDTAB
0
TABLE
2
VIEW
5
6
100
AcDbSymbolTable
70
0
0
ENDTAB
0
TABLE
2
UCS
5
7
100
AcDbSymbolTable
70
0
0
ENDTAB
0
TABLE
2
APPID
5
9
100
AcDbSymbolTable
70
2
0
APPID
5
12
100
AcDbSymbolTableRecord
100
AcDbRegAppTableRecord
2
ACAD
70
0
0
ENDTAB
0
TABLE
2
DIMSTYLE
5
A
100
AcDbSymbolTable
70
1
0
ENDTAB
0
TABLE
2
BLOCK_RECORD
5
1
100
AcDbSymbolTable
70
1
0
BLOCK_RECORD
5
1F
100
AcDbSymbolTableRecord
100
AcDbBlockTableRecord
2
*MODEL_SPACE
0
BLOCK_RECORD
5
1B
100
AcDbSymbolTableRecord
100
AcDbBlockTableRecord
2
*PAPER_SPACE
0
ENDTAB
0
ENDSEC
0
SECTION
2
BLOCKS
0
BLOCK
5
20
100
AcDbEntity
100
AcDbBlockBegin
2
*MODEL_SPACE
0
ENDBLK
5
21
100
AcDbEntity
100
AcDbBlockEnd
0
BLOCK
5
1C
100
AcDbEntity
100
AcDbBlockBegin
2
*PAPER_SPACE
0
ENDBLK
5
1D
100
AcDbEntity
100
AcDbBlockEnd
0
ENDSEC
0
SECTION
2
ENTITIES
0
LWPOLYLINE
5
100
100
AcDbEntity
8
0
100
AcDbPolyline
90
4
70
1
43
0.0
10
-52.405598610745869
20
17.059302657165595
10
-50.995981385712966
20
17.572121037221041
42
-0.99999992150326567
10
-50.209662433067876
20
15.410708882012841
10
-51.6192776908523
20
14.897891217632528
42
-0.99999999999999989
0
ARC
5
101
100
AcDbEntity
8
0
100
AcDbCircle
10
6.1694217376145524
20
36.135406329128294
30
0
40
25.000000000000036
210
0
220
0
230
1
100
AcDbArc
50
270
51
289.96573391770249
0
LINE
5
102
100
AcDbEntity
8
0
100
AcDbLine
10
25.044109612423931
20
10.667057724705939
30
0
11
37.089744175688807
21
13.993126225926531
31
0
0
LINE
5
103
100
AcDbEntity
8
0
100
AcDbLine
10
53.797643059735229
20
17.326379595816697
30
0
11
51.053468662379032
21
23.893846608604598
31
0
0
LINE
5
104
100
AcDbEntity
8
0
100
AcDbLine
10
47.200108109485832
20
10.69301891298265
30
0
11
52.454772848375569
21
13.529909914852702
31
0
0
ARC
5
105
100
AcDbEntity
8
0
100
AcDbCircle
10
-27.326568007489598
20
38.481862261155499
30
0
40
20.000000000005521
210
0
220
0
230
1
100
AcDbArc
50
244.72758809855407
51
250.03426608229748
0
LINE
5
106
100
AcDbEntity
8
0
100
AcDbLine
10
-46.789915902369749
20
25.55383919861233
30
0
11
-35.865017912778001
21
20.396097880983412
31
0
0
LWPOLYLINE
5
107
100
AcDbEntity
8
0
100
AcDbPolyline
90
4
70
1
43
0.0
10
-43.235835970598472
20
12.781778632250525
10
-43.748676423787259
20
14.191387826067603
42
0.99999992185765463
10
-45.910074834460175
20
13.405031093832259
10
-45.397235096714638
20
11.995423866512446
42
0.99999999999999989
0
LWPOLYLINE
5
108
100
AcDbEntity
8
0
100
AcDbPolyline
90
4
70
1
43
0.0
10
-40.35459582504653
20
19.045905535926543
10
-41.76427658477354
20
18.533012840454269
42
-0.9999998153819063
10
-42.550669499879717
20
20.694398086805901
10
-41.140986073283663
20
21.207291752565489
42
-0.99999999999999989
0
ARC
5
109
100
AcDbEntity
8
0
100
AcDbCircle
10
48.100857783742669
20
22.660116897785699
30
0
40
3.1999999999998563
210
0
220
-0
230
1
100
AcDbArc
50
22.677301410218767
51
115.27241190144548
0
LINE
5
110
100
AcDbEntity
8
0
100
AcDbLine
10
46.734705798896982
20
25.553839198612319
30
0
11
35.809807809305227
21
20.396097880983412
31
0
0
LWPOLYLINE
5
111
100
AcDbEntity
8
0
100
AcDbPolyline
90
4
70
1
43
0.0
10
52.350388507273102
20
17.059302657165585
10
50.940771282948916
20
17.572121036965193
42
0.99999992185765463
10
50.154452329595109
20
15.410708882012848
10
51.564067587381579
20
14.897891217640112
42
0.99999999999999989
0
LINE
5
112
100
AcDbEntity
8
0
100
AcDbLine
10
34.100519772487353
20
19.683922262994813
30
0
11
14.705874073200334
21
12.637981331433902
31
0
0
ARC
5
113
100
AcDbEntity
8
0
100
AcDbCircle
10
27.271357904016842
20
38.481862261155499
30
0
40
20.000000000005524
210
-0
220
0
230
1
100
AcDbArc
50
289.96573391770249
51
295.27241190144582
0
ARC
5
114
100
AcDbEntity
8
0
100
AcDbCircle
10
-6.2246318410873149
20
36.135406329128294
30
0
40
25.000000000000021
210
0
220
0
230
1
100
AcDbArc
50
250.03426608229748
51
270
0
LINE
5
115
100
AcDbEntity
8
0
100
AcDbLine
10
-53.852853163207996
20
17.326379595816697
30
0
11
-51.108678765851806
21
23.893846608604598
31
0
0
LINE
5
116
100
AcDbEntity
8
0
100
AcDbLine
10
-40.583288682000742
20
12.526543868674768
30
0
11
-40.480233938924741
21
12.717428229147526
31
0
0
LWPOLYLINE
5
117
100
AcDbEntity
8
0
100
AcDbPolyline
90
4
70
1
43
0.0
10
40.299385721573763
20
19.045905535926543
10
41.709066481524161
20
18.533012840389034
42
0.9999998153819063
10
42.495459396406957
20
20.694398086805911
10
41.08577596980561
20
21.207291752568572
42
0.99999999999999989
0
LINE
5
118
100
AcDbEntity
8
0
100
AcDbLine
10
-47.255318212958599
20
10.69301891298265
30
0
11
-52.509982951848343
21
13.529909914852702
31
0
0
CIRCLE
5
119
100
AcDbEntity
8
0
100
AcDbCircle
10
46.318723424217396
20
18.02975895322782
30
0
40
2.6000000000000001
210
0
220
-0
230
1
0
CIRCLE
5
120
100
AcDbEntity
8
0
100
AcDbCircle
10
10.979679939628866
20
7.9570197890122376
30
0
40
1.5996553304718806
210
0
220
0
230
1
0
ARC
5
121
100
AcDbEntity
8
0
100
AcDbCircle
10
-51.084780464481511
20
16.16975799192328
30
0
40
3.0000000000046501
210
0
220
0
230
1
100
AcDbArc
50
157.32269858980499
51
241.63625523739449
0
CIRCLE
5
122
100
AcDbEntity
8
0
100
AcDbCircle
10
-46.373933527691236
20
18.029758953228225
30
0
40
2.6000000000000001
210
0
220
-0
230
1
0
ARC
5
123
100
AcDbEntity
8
0
100
AcDbCircle
10
51.029570361008759
20
16.169757991923294
30
0
40
3.0000000000016418
210
0
220
0
230
1
100
AcDbArc
50
-61.636255237394927
51
22.67730141019489
0
LINE
5
124
100
AcDbEntity
8
0
100
AcDbLine
10
-34.155729875960127
20
19.683922262994813
30
0
11
-14.761084176673105
21
12.637981331433906
31
0
0
LWPOLYLINE
5
125
100
AcDbEntity
8
0
100
AcDbPolyline
90
4
70
1
43
0.0
10
47.240610693774101
20
24.078407880029363
10
46.727785387254656
20
22.66869958375807
42
0.9999998153819063
10
48.889210705222837
20
21.882416813481498
10
49.402035041654159
20
23.292122443064834
42
0.99999999999999989
0
ARC
5
126
100
AcDbEntity
8
0
100
AcDbCircle
10
-48.156067887215428
20
22.660116897785699
30
0
40
3.1999999999998687
210
0
220
-0
230
1
100
AcDbArc
50
64.727588098554747
51
157.32269858978134
0
ARC
5
127
100
AcDbEntity
8
0
100
AcDbCircle
10
-44.879980734024187
20
15.092765708082215
30
0
40
4.999999999981938
210
0
220
0
230
1
100
AcDbArc
50
241.63625523740004
51
331.6362552373966
0
ARC
5
128
100
AcDbEntity
8
0
100
AcDbCircle
10
29.30270334986362
20
-4.7557947799197056
30
0
40
15.99999999999994
210
0
220
0
230
1
100
AcDbArc
50
105.43601691384514
51
122.04207630976136
0
LINE
5
129
100
AcDbEntity
8
0
100
AcDbLine
10
-0.027605051736385805
20
-4.2378476691139699
30
0
11
-20.869243013563743
21
8.8067445901587647
31
0
0
LINE
5
130
100
AcDbEntity
8
0
100
AcDbLine
10
40.528078578527975
20
12.526543868674768
30
0
11
40.425023835451974
21
12.717428229147526
31
0
0
ARC
5
131
100
AcDbEntity
8
0
100
AcDbCircle
10
44.824770630551136
20
15.092765708082222
30
0
40
4.9999999999817195
210
0
220
0
230
1
100
AcDbArc
50
208.36374476260502
51
298.36374476260278
0
ARC
5
132
100
AcDbEntity
8
0
100
AcDbCircle
10
37.88823050145902
20
11.101341381308236
30
0
40
3.0000000000000631
210
0
220
-0
230
1
100
AcDbArc
50
28.363744762615241
51
105.43601691384512
0
LINE
5
133
100
AcDbEntity
8
0
100
AcDbLine
10
-25.099319715896709
20
10.667057724705938
30
0
11
-37.144954279161581
21
13.993126225926535
31
0
0
LWPOLYLINE
5
134
100
AcDbEntity
8
0
100
AcDbPolyline
90
4
70
1
43
0.0
10
-49.457245145126919
20
23.292122443064834
10
-48.944420808695604
20
21.882416813481491
42
0.99999981508146962
10
-46.782995490727401
20
22.668699583758055
10
-47.295820797246805
20
24.078407880029523
42
0.99999999999999989
0
LWPOLYLINE
5
135
100
AcDbEntity
8
0
100
AcDbPolyline
90
4
70
1
43
0.0
10
45.342024993241871
20
11.995423866512452
10
45.854864730987401
20
13.405031093832253
42
0.99999992185765463
10
43.693466320314499
20
14.191387826067599
10
43.180625867125705
20
12.781778632250516
42
0.99999999999999989
0
ARC
5
136
100
AcDbEntity
8
0
100
AcDbCircle
10
-37.943440604931837
20
11.101341381308242
30
0
40
3.0000000000010218
210
0
220
-0
230
1
100
AcDbArc
50
74.563983086154096
51
151.6362552373844
0
CIRCLE
5
137
100
AcDbEntity
8
0
100
AcDbCircle
10
-0.020318443742525422
20
0.0070207070528751254
30
0
40
1.599655330471965
210
0
220
0
230
1
0
ARC
5
138
100
AcDbEntity
8
0
100
AcDbCircle
10
-29.357913453336376
20
-4.7557947799197269
30
0
40
15.999999999999963
210
0
220
-0
230
1
100
AcDbArc
50
57.957923690238751
51
74.563983086154963
0
LINE
5
139
100
AcDbEntity
8
0
100
AcDbLine
10
-0.027605051736385805
20
-4.2378476691139699
30
0
11
20.814032910090965
21
8.8067445901587647
31
0
0
CIRCLE
5
140
100
AcDbEntity
8
0
100
AcDbCircle
10
-11.048325423022158
20
7.9528569656229635
30
0
40
1.6000000000000005
210
0
220
0
230
1
0
LINE
5
141
100
AcDbEntity
8
0
100
AcDbLine
10
6.1694217376145417
20
11.135406329128262
30
0
11
-6.224631841087314
21
11.135406329128255
31
0
0
ENDSEC
0
SECTION
2
OBJECTS
0
DICTIONARY
5
C
100
AcDbDictionary
3
ACAD_GROUP
350
D
3
ACAD_MLINESTYLE
350
17
0
DICTIONARY
5
D
100
AcDbDictionary
0
DICTIONARY
5
1A
330
C
100
AcDbDictionary
0
DICTIONARY
5
17
100
AcDbDictionary
0
ENDSEC
0
EOF
