0
SECTION
2
HEADER
9
$INSUNITS
70
4
9
$ACADVER
1
AC1014
9
$HANDSEED
5
FFFF
0
ENDSEC
0
SECTION
2
TABLES
0
TABLE
2
VPORT
5
8
100
AcDbSymbolTable
0
ENDTAB
0
TABLE
2
LTYPE
5
5
100
AcDbSymbolTable
0
LTYPE
5
14
100
AcDbSymbolTableRecord
100
AcDbLinetypeTableRecord
2
BYBLOCK
70
0
0
LTYPE
5
15
100
AcDbSymbolTableRecord
100
AcDbLinetypeTableRecord
2
BYLAYER
70
0
0
ENDTAB
0
TABLE
2
LAYER
5
2
100
AcDbSymbolTable
70
2
0
LAYER
5
50
100
AcDbSymbolTableRecord
100
AcDbLayerTableRecord
2
0
70
0
6
CONTINUOUS
0
ENDTAB
0
TABLE
2
STYLE
5
3
100
AcDbSymbolTable
70
1
0
STYLE
5
11
100
AcDbSymbolTableRecord
100
AcDbTextStyleTableRecord
2
STANDARD
70
0
0
ENDTAB
0
TABLE
2
VIEW
5
6
100
AcDbSymbolTable
70
0
0
ENDTAB
0
TABLE
2
UCS
5
7
100
AcDbSymbolTable
70
0
0
ENDTAB
0
TABLE
2
APPID
5
9
100
AcDbSymbolTable
70
2
0
APPID
5
12
100
AcDbSymbolTableRecord
100
AcDbRegAppTableRecord
2
ACAD
70
0
0
ENDTAB
0
TABLE
2
DIMSTYLE
5
A
100
AcDbSymbolTable
70
1
0
ENDTAB
0
TABLE
2
BLOCK_RECORD
5
1
100
AcDbSymbolTable
70
1
0
BLOCK_RECORD
5
1F
100
AcDbSymbolTableRecord
100
AcDbBlockTableRecord
2
*MODEL_SPACE
0
BLOCK_RECORD
5
1B
100
AcDbSymbolTableRecord
100
AcDbBlockTableRecord
2
*PAPER_SPACE
0
ENDTAB
0
ENDSEC
0
SECTION
2
BLOCKS
0
BLOCK
5
20
100
AcDbEntity
100
AcDbBlockBegin
2
*MODEL_SPACE
0
ENDBLK
5
21
100
AcDbEntity
100
AcDbBlockEnd
0
BLOCK
5
1C
100
AcDbEntity
100
AcDbBlockBegin
2
*PAPER_SPACE
0
ENDBLK
5
1D
100
AcDbEntity
100
AcDbBlockEnd
0
ENDSEC
0
SECTION
2
ENTITIES
0
CIRCLE
5
100
100
AcDbEntity
8
0
100
AcDbCircle
10
-52.174921746755899
20
27.475414559595563
30
0
40
2.5999999999999996
210
-0
220
0
230
1
0
LWPOLYLINE
5
101
100
AcDbEntity
8
0
100
AcDbPolyline
90
4
70
1
43
0.0
10
50.000503764790302
20
21.766263445839375
10
50.260976031290667
20
23.243475075357654
42
-0.99999999999999989
10
52.526033863218728
20
22.844084266723691
10
52.265561596718364
20
21.366872637205375
42
-0.99999999999999989
0
LWPOLYLINE
5
102
100
AcDbEntity
8
0
100
AcDbPolyline
90
4
70
1
43
0.0
10
-46.066379824365733
20
27.384774709633103
10
-47.543591453884005
20
27.124302443132706
42
-0.99999999999999989
10
-47.942982262517972
20
29.389360275060767
10
-46.465770632999643
20
29.649832541561171
42
-0.99999999999999989
0
CIRCLE
5
103
100
AcDbEntity
8
0
100
AcDbCircle
10
10.99710334363726
20
7.4597261119125307
30
0
40
1.6000000000000005
210
0
220
0
230
1
0
SPLINE
5
104
100
AcDbEntity
8
0
100
AcDbSpline
70
4
71
2
72
6
73
3
74
0
42
0.000000001
43
0.0000000001
44
0.0000000001
40
0
40
0
40
0
40
1
40
1
40
1
41
1
41
1
41
1
10
25.540440890778584
20
16.132037057936294
30
0
10
19.568585672126716
20
11.550801340171173
30
0
10
-0.0028966563627408348
20
10.892273359658528
30
0
0
CIRCLE
5
105
100
AcDbEntity
8
0
100
AcDbCircle
10
-10.99710334363726
20
7.4597261119125324
30
0
40
1.6000000000000005
210
0
220
0
230
1
0
LWPOLYLINE
5
106
100
AcDbEntity
8
0
100
AcDbPolyline
90
4
70
1
43
0.0
10
-50.000503764790302
20
21.766263445839375
10
-50.260976031290724
20
23.243475075357654
42
0.99999999999999989
10
-52.526033863218728
20
22.844084266723691
10
-52.265561596718364
20
21.366872637205411
42
0.99999999999999989
0
SPLINE
5
107
100
AcDbEntity
8
0
100
AcDbSpline
70
4
71
2
72
6
73
3
74
0
42
0.000000001
43
0.0000000001
44
0.0000000001
40
0
40
0
40
0
40
1
40
1
40
1
41
1
41
1
41
1
10
-25.540440890778584
20
16.132037057936294
30
0
10
-19.568585672126716
20
11.550801340171173
30
0
10
0.0028966563627408348
20
10.892273359658528
30
0
0
LWPOLYLINE
5
108
100
AcDbEntity
8
0
100
AcDbPolyline
90
4
70
1
43
0.0
10
54.13810784987173
20
31.698671634950138
42
-0.99999999999999989
10
51.873050017943669
20
32.098062443584105
10
52.133522284444055
20
33.575274073102392
42
-0.99999999999999989
10
54.398580116372116
20
33.17588326446846
0
LWPOLYLINE
5
109
100
AcDbEntity
8
0
100
AcDbPolyline
90
4
70
1
43
0.0
10
-56.81493444851111
20
27.875767063709041
42
-0.99999999999999989
10
-56.415543639877185
20
25.610709231780969
10
-57.892755269395494
20
25.350236965280565
42
-0.99999999999999989
10
-58.292146078029404
20
27.615294797208652
0
CIRCLE
5
110
100
AcDbEntity
8
0
100
AcDbCircle
10
52.174921746755899
20
27.475414559595563
30
0
40
2.5999999999999996
210
-0
220
0
230
1
0
LWPOLYLINE
5
111
100
AcDbEntity
8
0
100
AcDbPolyline
90
4
70
1
43
0.0
10
58.292146078029447
20
27.615294797208616
42
-0.99999999999999989
10
57.892755269395465
20
25.350236965280601
10
56.415543639877185
20
25.610709231780969
42
-0.99999999999999989
10
56.81493444851111
20
27.875767063709041
0
SPLINE
5
112
100
AcDbEntity
8
0
100
AcDbSpline
70
4
71
2
72
6
73
3
74
0
42
0.000000001
43
0.0000000001
44
0.0000000001
40
0
40
0
40
0
40
1
40
1
40
1
41
1
41
1
41
1
10
-25.540440890778584
20
16.132037057936294
30
0
10
-37.569688487066649
20
24.191281815422975
30
0
10
-44.864581468577953
20
32.642660432342716
30
0
0
ARC
5
113
100
AcDbEntity
8
0
100
AcDbCircle
10
-52.259136021323904
20
27.512303430489609
30
0
40
8.999999999999952
210
0
220
-0
230
1
100
AcDbArc
50
34.752991891488378
51
262.68453962550416
0
LWPOLYLINE
5
114
100
AcDbEntity
8
0
100
AcDbPolyline
90
4
70
1
43
0.0
10
46.066379824365725
20
27.384774709633088
42
-0.99999999999999989
10
46.46577063299965
20
29.649832541561185
10
47.942982262517965
20
29.389360275060742
42
-0.99999999999999989
10
47.543591453884019
20
27.124302443132727
0
ARC
5
115
100
AcDbEntity
8
0
100
AcDbCircle
10
52.259136021323904
20
27.512303430489609
30
0
40
8.9999999999999627
210
0
220
0
230
1
100
AcDbArc
50
-82.684539625504172
51
145.24700810851161
0
LWPOLYLINE
5
116
100
AcDbEntity
8
0
100
AcDbPolyline
90
4
70
1
43
0.0
10
-52.133522284444041
20
33.575274073102392
10
-51.873050017943676
20
32.098062443584084
42
-0.99999999999999989
10
-54.138107849871716
20
31.698671634950159
10
-54.398580116372123
20
33.17588326446846
42
-0.99999999999999989
0
SPLINE
5
117
100
AcDbEntity
8
0
100
AcDbSpline
70
4
71
2
72
6
73
3
74
0
42
0.000000001
43
0.0000000001
44
0.0000000001
40
0
40
0
40
0
40
1
40
1
40
1
41
1
41
1
41
1
10
25.540440890778584
20
16.132037057936294
30
0
10
37.569688487066649
20
24.191281815422975
30
0
10
44.864581468577953
20
32.642660432342716
30
0
0
SPLINE
5
118
100
AcDbEntity
8
0
100
AcDbSpline
70
4
71
2
72
6
73
3
74
0
42
0.000000001
43
0.0000000001
44
0.0000000001
40
0.076293321064874936
40
0.076293321064874936
40
0.076293321064874936
40
1
40
1
40
1
41
1
41
1
41
1
10
7.6391115655383146e-11
20
-5.8838458631731942
30
0
10
35.075266382612348
20
12.854511016105302
30
0
10
53.40512628259448
20
18.585562349833559
30
0
0
SPLINE
5
119
100
AcDbEntity
8
0
100
AcDbSpline
70
4
71
2
72
6
73
3
74
0
42
0.000000001
43
0.0000000001
44
0.0000000001
40
0.07629332106430986
40
0.07629332106430986
40
0.07629332106430986
40
1
40
1
40
1
41
1
41
1
41
1
10
-3.3475999750010033e-11
20
-5.8838458631961199
30
0
10
-35.075266382601136
20
12.854511016101799
30
0
10
-53.40512628259448
20
18.585562349833559
30
0
0
LWPOLYLINE
5
120
100
AcDbEntity
8
0
100
AcDbPolyline
90
2
70
1
43
0.0
10
-1.6027013319403536
20
-0.51527388808753594
42
-1.0157490003667415
10
1.5969080192148835
20
-0.51527388808738583
42
-0.98449518497084387
0
ENDSEC
0
SECTION
2
OBJECTS
0
DICTIONARY
5
C
100
AcDbDictionary
3
ACAD_GROUP
350
D
3
ACAD_MLINESTYLE
350
17
0
DICTIONARY
5
D
100
AcDbDictionary
0
DICTIONARY
5
1A
330
C
100
AcDbDictionary
0
DICTIONARY
5
17
100
AcDbDictionary
0
ENDSEC
0
EOF
