0
SECTION
2
HEADER
9
$INSUNITS
70
4
9
$ACADVER
1
AC1014
9
$HANDSEED
5
FFFF
0
ENDSEC
0
SECTION
2
TABLES
0
TABLE
2
VPORT
5
8
100
AcDbSymbolTable
0
ENDTAB
0
TABLE
2
LTYPE
5
5
100
AcDbSymbolTable
0
LTYPE
5
14
100
AcDbSymbolTableRecord
100
AcDbLinetypeTableRecord
2
BYBLOCK
70
0
0
LTYPE
5
15
100
AcDbSymbolTableRecord
100
AcDbLinetypeTableRecord
2
BYLAYER
70
0
0
ENDTAB
0
TABLE
2
LAYER
5
2
100
AcDbSymbolTable
70
2
0
LAYER
5
50
100
AcDbSymbolTableRecord
100
AcDbLayerTableRecord
2
0
70
0
6
CONTINUOUS
0
ENDTAB
0
TABLE
2
STYLE
5
3
100
AcDbSymbolTable
70
1
0
STYLE
5
11
100
AcDbSymbolTableRecord
100
AcDbTextStyleTableRecord
2
STANDARD
70
0
0
ENDTAB
0
TABLE
2
VIEW
5
6
100
AcDbSymbolTable
70
0
0
ENDTAB
0
TABLE
2
UCS
5
7
100
AcDbSymbolTable
70
0
0
ENDTAB
0
TABLE
2
APPID
5
9
100
AcDbSymbolTable
70
2
0
APPID
5
12
100
AcDbSymbolTableRecord
100
AcDbRegAppTableRecord
2
ACAD
70
0
0
ENDTAB
0
TABLE
2
DIMSTYLE
5
A
100
AcDbSymbolTable
70
1
0
ENDTAB
0
TABLE
2
BLOCK_RECORD
5
1
100
AcDbSymbolTable
70
1
0
BLOCK_RECORD
5
1F
100
AcDbSymbolTableRecord
100
AcDbBlockTableRecord
2
*MODEL_SPACE
0
BLOCK_RECORD
5
1B
100
AcDbSymbolTableRecord
100
AcDbBlockTableRecord
2
*PAPER_SPACE
0
ENDTAB
0
ENDSEC
0
SECTION
2
BLOCKS
0
BLOCK
5
20
100
AcDbEntity
100
AcDbBlockBegin
2
*MODEL_SPACE
0
ENDBLK
5
21
100
AcDbEntity
100
AcDbBlockEnd
0
BLOCK
5
1C
100
AcDbEntity
100
AcDbBlockBegin
2
*PAPER_SPACE
0
ENDBLK
5
1D
100
AcDbEntity
100
AcDbBlockEnd
0
ENDSEC
0
SECTION
2
ENTITIES
0
LINE
5
100
100
AcDbEntity
8
0
100
AcDbLine
10
55.665009192657344
20
35.516954786297539
30
0
11
54.436281126223854
21
36.377319440824103
31
0
0
LWPOLYLINE
5
101
100
AcDbEntity
8
0
100
AcDbPolyline
90
4
70
1
43
0.0
10
62.918201032266765
20
27.569394900532451
10
61.689472965833268
20
28.429759555059
42
-0.99999999999999989
10
63.008698769440706
20
30.313809256923669
10
64.237426835874217
20
29.453444602397106
42
-0.99999999999999989
0
LINE
5
102
100
AcDbEntity
8
0
100
AcDbLine
10
62.145062880634129
20
35.008128488885369
30
0
11
63.005427535160699
21
36.236856555318845
31
0
0
LWPOLYLINE
5
103
100
AcDbEntity
8
0
100
AcDbPolyline
90
4
70
1
43
0.0
10
-54.285211512023395
20
27.697579005640801
10
-55.145576166549986
20
28.926307072074291
42
0.99999999999999989
10
-57.029625868414655
20
27.607081268466889
10
-56.169261213888092
20
26.378353202033409
42
0.99999999999999989
0
LWPOLYLINE
5
104
100
AcDbEntity
8
0
100
AcDbPolyline
90
4
70
1
43
0.0
10
56.163467901162619
20
26.378353202033409
10
57.023832555689175
20
27.607081268466889
42
0.99999999999999989
10
55.139782853824507
20
28.926307072074291
10
54.279418199297922
20
27.697579005640801
42
0.99999999999999989
0
CIRCLE
5
105
100
AcDbEntity
8
0
100
AcDbCircle
10
10.99710334363726
20
7.4597261119125342
30
0
40
1.6000000000000005
210
0
220
0
230
1
0
CIRCLE
5
106
100
AcDbEntity
8
0
100
AcDbCircle
10
10.99710334363726
20
7.4597261119125307
30
0
40
1.6000000000000005
210
0
220
0
230
1
0
SPLINE
5
107
100
AcDbEntity
8
0
100
AcDbSpline
70
4
71
2
72
6
73
3
74
0
42
0.000000001
43
0.0000000001
44
0.0000000001
40
0
40
0
40
0
40
1
40
1
40
1
41
1
41
1
41
1
10
-31.451638538683532
20
20.191099226358901
30
0
10
-19.574378984852196
20
11.550801340171173
30
0
10
-0.0028966563627408348
20
10.892273359658528
30
0
0
CIRCLE
5
108
100
AcDbEntity
8
0
100
AcDbCircle
10
58.662901668336566
20
31.952878369571049
30
0
40
2.6000000000000001
210
0
220
-0
230
1
0
CIRCLE
5
109
100
AcDbEntity
8
0
100
AcDbCircle
10
-0.0028966563627386144
20
-0.49027388808746686
30
0
40
1.6000000000000005
210
0
220
0
230
1
0
CIRCLE
5
110
100
AcDbEntity
8
0
100
AcDbCircle
10
-0.0028966563627430553
20
-0.49027388808746686
30
0
40
1.6000000000000005
210
0
220
0
230
1
0
CIRCLE
5
111
100
AcDbEntity
8
0
100
AcDbCircle
10
-0.0028966563627408348
20
-0.49027388808746242
30
0
40
1.6000000000000005
210
0
220
0
230
1
0
SPLINE
5
112
100
AcDbEntity
8
0
100
AcDbSpline
70
4
71
2
72
6
73
3
74
0
42
0.000000001
43
0.0000000001
44
0.0000000001
40
0
40
0
40
0
40
1
40
1
40
1
41
1
41
1
41
1
10
-31.451638538683532
20
20.191099226358901
30
0
10
-43.480886134971648
20
28.250343983845625
30
0
10
-50.77577911648298
20
36.701722600765414
30
0
0
LINE
5
113
100
AcDbEntity
8
0
100
AcDbLine
10
-62.150856193359601
20
35.008128488885369
30
0
11
-63.011220847886179
21
36.236856555318845
31
0
0
CIRCLE
5
114
100
AcDbEntity
8
0
100
AcDbCircle
10
-0.0028966563627408348
20
-0.49027388808746242
30
0
40
1.6000000000000005
210
0
220
0
230
1
0
LWPOLYLINE
5
115
100
AcDbEntity
8
0
100
AcDbPolyline
90
4
70
1
43
0.0
10
-62.923994344992238
20
27.569394900532451
10
-61.695266278558769
20
28.429759555059047
42
0.99999999999999989
10
-63.014492082166186
20
30.313809256923669
10
-64.243220148599661
20
29.45344460239712
42
0.99999999999999989
0
CIRCLE
5
116
100
AcDbEntity
8
0
100
AcDbCircle
10
-11.002896656362742
20
7.4597261119125342
30
0
40
1.6000000000000005
210
0
220
0
230
1
0
CIRCLE
5
117
100
AcDbEntity
8
0
100
AcDbCircle
10
-0.0028966563627408348
20
-0.49027388808746242
30
0
40
1.6000000000000005
210
0
220
0
230
1
0
CIRCLE
5
118
100
AcDbEntity
8
0
100
AcDbCircle
10
-0.0028966563627430553
20
-0.49027388808746686
30
0
40
1.6000000000000005
210
0
220
0
230
1
0
CIRCLE
5
119
100
AcDbEntity
8
0
100
AcDbCircle
10
-0.0028966563627430553
20
-0.49027388808746686
30
0
40
1.6000000000000005
210
0
220
0
230
1
0
CIRCLE
5
120
100
AcDbEntity
8
0
100
AcDbCircle
10
-0.0028966563627408348
20
-0.49027388808746242
30
0
40
1.6000000000000005
210
0
220
0
230
1
0
LINE
5
121
100
AcDbEntity
8
0
100
AcDbLine
10
-60.266806491494918
20
36.327354292492757
30
0
11
-61.127171146021496
21
37.556082358926247
31
0
0
CIRCLE
5
122
100
AcDbEntity
8
0
100
AcDbCircle
10
-0.0028966563627386144
20
-0.49027388808746686
30
0
40
1.6000000000000005
210
0
220
0
230
1
0
CIRCLE
5
123
100
AcDbEntity
8
0
100
AcDbCircle
10
-58.668694981062046
20
31.952878369571049
30
0
40
2.6000000000000001
210
0
220
-0
230
1
0
CIRCLE
5
124
100
AcDbEntity
8
0
100
AcDbCircle
10
-0.0028966563627386144
20
-0.49027388808746686
30
0
40
1.6000000000000005
210
0
220
0
230
1
0
LINE
5
125
100
AcDbEntity
8
0
100
AcDbLine
10
54.345783389049942
20
33.632905084432863
30
0
11
53.117055322616451
21
34.493269738959434
31
0
0
CIRCLE
5
126
100
AcDbEntity
8
0
100
AcDbCircle
10
-0.0028966563627408348
20
-0.49027388808746242
30
0
40
1.6000000000000005
210
0
220
0
230
1
0
LWPOLYLINE
5
127
100
AcDbEntity
8
0
100
AcDbPolyline
90
4
70
1
43
0.0
10
-53.122848635341938
20
34.493269738959434
10
-54.351576701775421
20
33.632905084432871
42
-0.99999999999999989
10
-55.670802505382824
20
35.516954786297539
10
-54.442074438949334
20
36.377319440824117
42
-0.99999999999999989
0
CIRCLE
5
128
100
AcDbEntity
8
0
100
AcDbCircle
10
-0.0028966563627408348
20
-0.49027388808746242
30
0
40
1.6000000000000005
210
0
220
0
230
1
0
CIRCLE
5
129
100
AcDbEntity
8
0
100
AcDbCircle
10
-0.0028966563627430553
20
-0.49027388808746686
30
0
40
1.6000000000000005
210
0
220
0
230
1
0
CIRCLE
5
130
100
AcDbEntity
8
0
100
AcDbCircle
10
-0.0028966563627408348
20
-0.49027388808746242
30
0
40
1.6000000000000005
210
0
220
0
230
1
0
CIRCLE
5
131
100
AcDbEntity
8
0
100
AcDbCircle
10
-0.0028966563627386144
20
-0.49027388808746686
30
0
40
1.6000000000000005
210
0
220
0
230
1
0
SPLINE
5
132
100
AcDbEntity
8
0
100
AcDbSpline
70
4
71
2
72
6
73
3
74
0
42
0.000000001
43
0.0000000001
44
0.0000000001
40
0
40
0
40
0
40
1
40
1
40
1
41
1
41
1
41
1
10
31.445845225958049
20
20.191099226358901
30
0
10
43.475092822246175
20
28.250343983845625
30
0
10
50.7699858037575
20
36.701722600765414
30
0
0
CIRCLE
5
133
100
AcDbEntity
8
0
100
AcDbCircle
10
-11.002896656362742
20
7.4597261119125307
30
0
40
1.6000000000000005
210
0
220
0
230
1
0
SPLINE
5
134
100
AcDbEntity
8
0
100
AcDbSpline
70
4
71
2
72
6
73
3
74
0
42
0.000000001
43
0.0000000001
44
0.0000000001
40
0
40
0
40
0
40
1
40
1
40
1
41
1
41
1
41
1
10
31.445845225958049
20
20.191099226358901
30
0
10
19.568585672126716
20
11.550801340171173
30
0
10
-0.0028966563627408348
20
10.892273359658528
30
0
0
CIRCLE
5
135
100
AcDbEntity
8
0
100
AcDbCircle
10
-0.0028966563627408348
20
-0.49027388808746242
30
0
40
1.6000000000000005
210
0
220
0
230
1
0
LINE
5
136
100
AcDbEntity
8
0
100
AcDbLine
10
60.261013178769446
20
36.327354292492757
30
0
11
61.121377833296016
21
37.556082358926247
31
0
0
ARC
5
137
100
AcDbEntity
8
0
100
AcDbCircle
10
-58.17033366922896
20
31.571365598912276
30
0
40
8.9999999999999911
210
0
220
-0
230
1
100
AcDbArc
50
34.752991891488449
51
262.68453962550404
0
ARC
5
138
100
AcDbEntity
8
0
100
AcDbCircle
10
58.164540356503487
20
31.571365598912276
30
0
40
9
210
0
220
0
230
1
100
AcDbArc
50
-82.684539625504073
51
145.24700810851161
0
ARC
5
139
100
AcDbEntity
8
0
100
AcDbCircle
10
-61.20883134242726
20
35.667741390689059
30
0
40
1.1499999999999946
210
0
220
0
230
1
100
AcDbArc
50
-145.00000000000057
51
34.999999999999751
0
ARC
5
140
100
AcDbEntity
8
0
100
AcDbCircle
10
-62.069195996953837
20
36.896469457122556
30
0
40
1.1499999999999946
210
0
220
-0
230
1
100
AcDbArc
50
34.999999999999453
51
215.00000000000031
0
ARC
5
141
100
AcDbEntity
8
0
100
AcDbCircle
10
55.005396290853653
20
34.574929935365205
30
0
40
1.150000000000001
210
0
220
0
230
1
100
AcDbArc
50
-125.00000000000037
51
55.000000000000327
0
ARC
5
142
100
AcDbEntity
8
0
100
AcDbCircle
10
53.776668224420163
20
35.435294589891775
30
0
40
1.1499999999999875
210
0
220
-0
230
1
100
AcDbArc
50
55.000000000000128
51
234.99999999999963
0
ARC
5
143
100
AcDbEntity
8
0
100
AcDbCircle
10
61.203038029701787
20
35.667741390689059
30
0
40
1.1499999999999997
210
0
220
0
230
1
100
AcDbArc
50
145.00000000000026
51
325.00000000000057
0
ARC
5
144
100
AcDbEntity
8
0
100
AcDbCircle
10
62.063402684228357
20
36.896469457122556
30
0
40
1.1500000000000048
210
-0
220
0
230
1
100
AcDbArc
50
-35.000000000000313
51
145.00000000000057
0
SPLINE
5
145
100
AcDbEntity
8
0
100
AcDbSpline
70
4
71
2
72
6
73
3
74
0
42
0.000000001
43
0.0000000001
44
0.0000000001
40
6.7410984908096696e-05
40
6.7410984908096696e-05
40
6.7410984908096696e-05
40
1
40
1
40
1
41
1
41
1
41
1
10
-0.0027068070684292027
20
-5.0086269619652235
30
0
10
-39.473851548246273
20
16.4406366846727
30
0
10
-59.316323930499557
20
22.64462451825619
30
0
0
SPLINE
5
146
100
AcDbEntity
8
0
100
AcDbSpline
70
4
71
2
72
6
73
3
74
0
42
0.000000001
43
0.0000000001
44
0.0000000001
40
7.1827020133129676e-05
40
7.1827020133129676e-05
40
7.1827020133129676e-05
40
1
40
1
40
1
41
1
41
1
41
1
10
-0.0027067811874834551
20
-5.0086270094030017
30
0
10
39.468145866485081
20
16.440664083548494
30
0
10
59.310530617774084
20
22.64462451825619
30
0
0
ENDSEC
0
SECTION
2
OBJECTS
0
DICTIONARY
5
C
100
AcDbDictionary
3
ACAD_GROUP
350
D
3
ACAD_MLINESTYLE
350
17
0
DICTIONARY
5
D
100
AcDbDictionary
0
DICTIONARY
5
1A
330
C
100
AcDbDictionary
0
DICTIONARY
5
17
100
AcDbDictionary
0
ENDSEC
0
EOF
